<svg xmlns="http://www.w3.org/2000/svg" width="80" height="106" viewBox="0 0 80 106">
    <g fill="none" fill-rule="evenodd">
        <path fill="#FFF" d="M60.798 73.595H24.534a2.749 2.749 0 0 1-2.747-2.75V35.539a2.75 2.75 0 0 1 2.747-2.751h36.264a2.75 2.75 0 0 1 2.747 2.75v35.307a2.75 2.75 0 0 1-2.747 2.75"/>
        <path fill="#05C87B" d="M63.343 38.89H21.84v-2.24c0-2.075 1.255-3.76 2.804-3.76h35.894c1.55 0 2.805 1.685 2.805 3.76v2.24z"/>
        <path stroke="#1A1A1A" stroke-linecap="round" stroke-linejoin="round" stroke-width="1.5" d="M60.798 73.595H24.534a2.749 2.749 0 0 1-2.747-2.75V35.539a2.75 2.75 0 0 1 2.747-2.751h36.264a2.75 2.75 0 0 1 2.747 2.75v35.307a2.75 2.75 0 0 1-2.747 2.75zM22.076 38.4h41.198"/>
        <path fill="#FFF" d="M33.697 58.13c.406 1.407 1.158 2.71 2.216 3.719 1.622 1.542 3.85 2.32 6.07 2.579.995.115 2.063-.05 3.038-.28 1.457-.34 2.697-1.041 3.702-2.151a12.75 12.75 0 0 0 2.301-3.531c.257-.57.546-1.388.615-2.01.116-1.048.133-1.895-.03-2.814-.109-.606-.247-1.207-.467-1.782-.51-1.327-1.469-2.677-2.554-3.594-.96-.81-2.29-1.553-3.535-1.898-1.564-.436-2.692-.346-4.011-.203a7.732 7.732 0 0 0-2.272.59c-1.362.6-2.498 1.644-3.376 2.849"/>
        <path stroke="#1A1A1A" stroke-linecap="round" stroke-linejoin="round" stroke-width="1.5" d="M33.697 58.13c.406 1.407 1.158 2.71 2.216 3.719 1.622 1.542 3.85 2.32 6.07 2.579.995.115 2.063-.05 3.038-.28 1.457-.34 2.697-1.041 3.702-2.151a12.75 12.75 0 0 0 2.301-3.531c.257-.57.546-1.388.615-2.01.116-1.048.133-1.895-.03-2.814-.109-.606-.247-1.207-.467-1.782-.51-1.327-1.469-2.677-2.554-3.594-.96-.81-2.29-1.553-3.535-1.898-1.564-.436-2.692-.346-4.011-.203a7.732 7.732 0 0 0-2.272.59c-1.362.6-2.498 1.644-3.376 2.849"/>
        <path stroke="#1A1A1A" stroke-linecap="round" stroke-linejoin="round" stroke-width="1.5" d="M34.41 47.978l.009 2.589 2.725-.299"/>
        <path fill="#FFF" d="M42.713 52.42v5.15"/>
        <path stroke="#1A1A1A" stroke-linecap="round" stroke-linejoin="round" stroke-width="1.5" d="M42.713 52.42v5.15"/>
        <g>
            <path fill="#FFF" d="M45.285 54.994h-5.143"/>
            <path stroke="#1A1A1A" stroke-linecap="round" stroke-linejoin="round" stroke-width="1.5" d="M45.285 54.994h-5.143"/>
        </g>
    </g>
</svg>
