<svg xmlns="http://www.w3.org/2000/svg" xmlns:xlink="http://www.w3.org/1999/xlink">

<symbol id="icon-eve1" viewBox="0 0 80 106">
    <g fill="none" fill-rule="evenodd">
        <path fill="#FFF" d="M55.041 74.345H31.055c-5.139 0-9.305-4.166-9.305-9.304V41.054c0-5.138 4.166-9.304 9.305-9.304h23.986a9.304 9.304 0 0 1 9.304 9.304V65.04a9.304 9.304 0 0 1-9.304 9.304"/>
        <path stroke="#000" stroke-linecap="round" stroke-linejoin="round" stroke-width="1.5" d="M55.041 74.345H31.055c-5.139 0-9.305-4.166-9.305-9.304V41.054c0-5.138 4.166-9.304 9.305-9.304h23.986a9.304 9.304 0 0 1 9.304 9.304V65.04a9.304 9.304 0 0 1-9.304 9.304z"/>
        <path fill="#05C87B" d="M53.303 59.985H32.792a.804.804 0 0 1-.803-.805V46.915c0-.445.36-.805.803-.805h20.51c.445 0 .805.36.805.805V59.18c0 .445-.36.805-.804.805"/>
        <path fill="#FFF" d="M38.496 51.521c0-.468-.329-.825-.778-.825h-.963v1.65h.963c.45 0 .778-.358.778-.825m1.467 0c0 1.22-.98 2.2-2.245 2.2h-.963v1.8a.216.216 0 0 1-.216.215h-1.034a.216.216 0 0 1-.216-.215v-5.984c0-.119.097-.216.216-.216h2.213c1.264 0 2.245.981 2.245 2.2M44.033 53.445c0-.687-.459-1.118-1.09-1.118-.634 0-1.092.431-1.092 1.118s.458 1.118 1.091 1.118c.632 0 1.091-.43 1.091-1.118m1.374-2.178v4.355a.114.114 0 0 1-.113.114h-1.148a.114.114 0 0 1-.113-.114v-.317c-.303.348-.752.56-1.366.56-1.2 0-2.19-1.054-2.19-2.42 0-1.366.99-2.419 2.19-2.419.614 0 1.063.211 1.366.56v-.319c0-.062.051-.113.113-.113h1.148c.062 0 .113.051.113.113M49.982 51.273l-1.056 2.658-1.09-2.66a.19.19 0 0 0-.175-.116h-1.17a.114.114 0 0 0-.106.156l1.821 4.437-.663 1.67a.113.113 0 0 0 .105.156h1.17a.192.192 0 0 0 .177-.12l2.44-6.145a.114.114 0 0 0-.107-.154h-1.17a.188.188 0 0 0-.176.118"/>
    </g>
</symbol>

<symbol id="icon-eve2" viewBox="0 0 80 106">
    <g fill="none" fill-rule="evenodd">
        <path fill="#FFF" d="M60.798 73.595H24.534a2.749 2.749 0 0 1-2.747-2.75V35.539a2.75 2.75 0 0 1 2.747-2.751h36.264a2.75 2.75 0 0 1 2.747 2.75v35.307a2.75 2.75 0 0 1-2.747 2.75"/>
        <path fill="#05C87B" d="M63.343 38.89H21.84v-2.24c0-2.075 1.255-3.76 2.804-3.76h35.894c1.55 0 2.805 1.685 2.805 3.76v2.24z"/>
        <path stroke="#1A1A1A" stroke-linecap="round" stroke-linejoin="round" stroke-width="1.5" d="M60.798 73.595H24.534a2.749 2.749 0 0 1-2.747-2.75V35.539a2.75 2.75 0 0 1 2.747-2.751h36.264a2.75 2.75 0 0 1 2.747 2.75v35.307a2.75 2.75 0 0 1-2.747 2.75zM22.076 38.4h41.198"/>
        <path fill="#FFF" d="M33.697 58.13c.406 1.407 1.158 2.71 2.216 3.719 1.622 1.542 3.85 2.32 6.07 2.579.995.115 2.063-.05 3.038-.28 1.457-.34 2.697-1.041 3.702-2.151a12.75 12.75 0 0 0 2.301-3.531c.257-.57.546-1.388.615-2.01.116-1.048.133-1.895-.03-2.814-.109-.606-.247-1.207-.467-1.782-.51-1.327-1.469-2.677-2.554-3.594-.96-.81-2.29-1.553-3.535-1.898-1.564-.436-2.692-.346-4.011-.203a7.732 7.732 0 0 0-2.272.59c-1.362.6-2.498 1.644-3.376 2.849"/>
        <path stroke="#1A1A1A" stroke-linecap="round" stroke-linejoin="round" stroke-width="1.5" d="M33.697 58.13c.406 1.407 1.158 2.71 2.216 3.719 1.622 1.542 3.85 2.32 6.07 2.579.995.115 2.063-.05 3.038-.28 1.457-.34 2.697-1.041 3.702-2.151a12.75 12.75 0 0 0 2.301-3.531c.257-.57.546-1.388.615-2.01.116-1.048.133-1.895-.03-2.814-.109-.606-.247-1.207-.467-1.782-.51-1.327-1.469-2.677-2.554-3.594-.96-.81-2.29-1.553-3.535-1.898-1.564-.436-2.692-.346-4.011-.203a7.732 7.732 0 0 0-2.272.59c-1.362.6-2.498 1.644-3.376 2.849"/>
        <path stroke="#1A1A1A" stroke-linecap="round" stroke-linejoin="round" stroke-width="1.5" d="M34.41 47.978l.009 2.589 2.725-.299"/>
        <path fill="#FFF" d="M42.713 52.42v5.15"/>
        <path stroke="#1A1A1A" stroke-linecap="round" stroke-linejoin="round" stroke-width="1.5" d="M42.713 52.42v5.15"/>
        <g>
            <path fill="#FFF" d="M45.285 54.994h-5.143"/>
            <path stroke="#1A1A1A" stroke-linecap="round" stroke-linejoin="round" stroke-width="1.5" d="M45.285 54.994h-5.143"/>
        </g>
    </g>
</symbol>
</svg>

